<svg viewBox="0 0 512 512" xml:space="preserve" xmlns="http://www.w3.org/2000/svg" fill-rule="evenodd" clip-rule="evenodd" stroke-linejoin="round" stroke-miterlimit="2"><path d="M449.446 0C483.971 0 512 28.03 512 62.554v386.892C512 483.97 483.97 512 449.446 512H62.554C28.03 512 0 483.97 0 449.446V62.554C0 28.03 28.029 0 62.554 0h386.892Zm-58.673 127.703c-33.842-33.881-78.847-52.548-126.798-52.568-98.799 0-179.21 80.405-179.249 179.234-.013 31.593 8.241 62.428 23.927 89.612l-25.429 92.884 95.021-24.925c26.181 14.28 55.659 21.807 85.658 21.816h.074c98.789 0 179.206-80.413 179.247-179.243.018-47.895-18.61-92.93-52.451-126.81ZM263.976 403.485h-.06c-26.734-.01-52.954-7.193-75.828-20.767l-5.441-3.229-56.386 14.792 15.05-54.977-3.542-5.637c-14.913-23.72-22.791-51.136-22.779-79.287.033-82.142 66.867-148.971 149.046-148.971 39.793.014 77.199 15.531 105.329 43.692 28.128 28.16 43.609 65.592 43.594 105.4-.034 82.149-66.866 148.983-148.983 148.984Zm81.721-111.581c-4.479-2.242-26.499-13.075-30.604-14.571-4.105-1.495-7.091-2.241-10.077 2.241-2.986 4.483-11.569 14.572-14.182 17.562-2.612 2.988-5.225 3.364-9.703 1.12-4.479-2.241-18.91-6.97-36.017-22.23C231.8 264.15 222.81 249.484 220.198 245c-2.612-4.484-.279-6.908 1.963-9.14 2.016-2.007 4.48-5.232 6.719-7.847 2.24-2.615 2.986-4.484 4.479-7.472 1.493-2.99.747-5.604-.374-7.846-1.119-2.241-10.077-24.288-13.809-33.256-3.635-8.733-7.327-7.55-10.077-7.688-2.609-.13-5.598-.158-8.583-.158-2.986 0-7.839 1.121-11.944 5.604-4.105 4.484-15.675 15.32-15.675 37.364 0 22.046 16.048 43.342 18.287 46.332 2.24 2.99 31.582 48.227 76.511 67.627 10.685 4.615 19.028 7.371 25.533 9.434 10.728 3.41 20.492 2.929 28.209 1.775 8.605-1.285 26.499-10.833 30.231-21.295 3.732-10.464 3.732-19.431 2.612-21.298-1.119-1.869-4.105-2.99-8.583-5.232Z" fill="#ef7b8e" class="fill-000000"></path></svg>